<svg xmlns="http://www.w3.org/2000/svg" width="45" height="45" viewBox="0 0 45 45">
  <path id="Path_14689" data-name="Path 14689" d="M33,25.5h5A12.5,12.5,0,0,0,25.5,13v5A7.49,7.49,0,0,1,33,25.5Zm10,0h5A22.5,22.5,0,0,0,25.5,3V8A17.487,17.487,0,0,1,43,25.5Zm2.5,8.75a28.4,28.4,0,0,1-8.925-1.425A2.788,2.788,0,0,0,35.8,32.7a2.561,2.561,0,0,0-1.775.725l-5.5,5.5A37.613,37.613,0,0,1,12.05,22.45l5.5-5.525a2.4,2.4,0,0,0,.625-2.5A28.4,28.4,0,0,1,16.75,5.5,2.507,2.507,0,0,0,14.25,3H5.5A2.507,2.507,0,0,0,3,5.5,42.5,42.5,0,0,0,45.5,48,2.507,2.507,0,0,0,48,45.5V36.75A2.507,2.507,0,0,0,45.5,34.25ZM8.075,8h3.75a34.465,34.465,0,0,0,1.125,6.45l-3,3.025A38.369,38.369,0,0,1,8.075,8ZM43,42.925a37.254,37.254,0,0,1-9.5-1.9l3-3A31.882,31.882,0,0,0,43,39.15Z" transform="translate(-3 -3)" fill="#ca4879"/>
</svg>
