<svg xmlns="http://www.w3.org/2000/svg" width="24" height="19.766" viewBox="0 0 24 19.766">
  <path id="Path_15117" data-name="Path 15117" d="M147.994,141.122a1.725,1.725,0,0,1,1.015-1.557l.038-.043a4.132,4.132,0,0,1,1.879-.389,4.415,4.415,0,0,1,1.917.433,1.792,1.792,0,0,1,1.015,1.557v6.1h5l.15-10.207-8.119-6.488-7.931,6.358v10.337h5.037Zm1.541-.26c-.15.13-.263.216-.263.26v6.012h3.308v-6.012c0-.043-.113-.13-.3-.26a3.656,3.656,0,0,0-2.706,0Zm-9.66-1.557a.54.54,0,0,1-.865-.173.811.811,0,0,1,.15-.995l11.389-9.083a.556.556,0,0,1,.714,0l11.352,9.083a.772.772,0,0,1,.188.995.576.576,0,0,1-.9.173l-1.616-1.3-.15,9.948c-.038.433-.3.735-.639.735H142.318a.714.714,0,0,1-.639-.735V137.878l-1.8,1.427Z" transform="translate(-138.906 -128.925)" fill="#5ab5e3"/>
</svg>
