<svg xmlns="http://www.w3.org/2000/svg" width="22.667" height="22.667" viewBox="0 0 22.667 22.667">
  <path id="Path_14657" data-name="Path 14657" d="M15.333,6.692a2.975,2.975,0,1,1-2.975,2.975,2.975,2.975,0,0,1,2.975-2.975m0,12.75c4.208,0,8.642,2.068,8.642,2.975v1.558H6.692V22.417c0-.907,4.434-2.975,8.642-2.975M15.333,4A5.667,5.667,0,1,0,21,9.667,5.665,5.665,0,0,0,15.333,4Zm0,12.75C11.551,16.75,4,18.648,4,22.417v4.25H26.667v-4.25C26.667,18.648,19.116,16.75,15.333,16.75Z" transform="translate(-4 -4)" fill="#5ab5e3"/>
</svg>
