<svg xmlns="http://www.w3.org/2000/svg" width="20.088" height="17.577" viewBox="0 0 20.088 17.577">
  <path id="FontAwsome_quote-left_" data-name="FontAwsome (quote-left)" d="M18.205,40.789H15.066V38.278a2.513,2.513,0,0,1,2.511-2.511h.314a.939.939,0,0,0,.942-.942V32.942A.939.939,0,0,0,17.891,32h-.314A6.276,6.276,0,0,0,11.3,38.278v9.416a1.884,1.884,0,0,0,1.883,1.883h5.022a1.884,1.884,0,0,0,1.883-1.883V42.672A1.884,1.884,0,0,0,18.205,40.789Zm-11.3,0H3.767V38.278a2.513,2.513,0,0,1,2.511-2.511h.314a.939.939,0,0,0,.942-.942V32.942A.939.939,0,0,0,6.591,32H6.278A6.276,6.276,0,0,0,0,38.278v9.416a1.884,1.884,0,0,0,1.883,1.883H6.905a1.884,1.884,0,0,0,1.883-1.883V42.672A1.884,1.884,0,0,0,6.905,40.789Z" transform="translate(0 -32)" fill="#98b53a"/>
</svg>
