<svg xmlns="http://www.w3.org/2000/svg" width="20.088" height="17.577" viewBox="0 0 20.088 17.577">
  <path id="FontAwsome_quote-left_" data-name="FontAwsome (quote-left)" d="M1.883,40.789H5.022V43.3a2.513,2.513,0,0,1-2.511,2.511H2.2a.939.939,0,0,0-.942.942v1.883a.939.939,0,0,0,.942.942h.314A6.276,6.276,0,0,0,8.789,43.3V33.883A1.884,1.884,0,0,0,6.905,32H1.883A1.884,1.884,0,0,0,0,33.883v5.022A1.884,1.884,0,0,0,1.883,40.789Zm11.3,0h3.139V43.3a2.513,2.513,0,0,1-2.511,2.511H13.5a.939.939,0,0,0-.942.942v1.883a.939.939,0,0,0,.942.942h.314A6.276,6.276,0,0,0,20.088,43.3V33.883A1.884,1.884,0,0,0,18.205,32H13.183A1.884,1.884,0,0,0,11.3,33.883v5.022A1.884,1.884,0,0,0,13.183,40.789Z" transform="translate(0 -32)" fill="#98b53a"/>
</svg>
