<svg xmlns="http://www.w3.org/2000/svg" width="60" height="60" viewBox="0 0 60 60">
  <g id="Group_38364" data-name="Group 38364" transform="translate(14397 9296)">
    <path id="Oval_Copy_2" data-name="Oval Copy 2" d="M30,0A30,30,0,1,1,0,30,30,30,0,0,1,30,0Z" transform="translate(-14397 -9296)" fill="#5ab5e3"/>
    <g id="_5296521_play_video_vlog_youtube_youtube_logo_icon" data-name="5296521_play_video_vlog_youtube_youtube logo_icon" transform="translate(-14274.838 -9355.486)">
      <path id="Exclusion_1" data-name="Exclusion 1" d="M14293.02,9380.119c-.108,0-10.89-.008-13.572-.726a4.346,4.346,0,0,1-3.07-3.071,48.55,48.55,0,0,1,0-16.725,4.343,4.343,0,0,1,3.07-3.071c2.683-.718,13.464-.726,13.572-.726s10.894.008,13.575.726a4.356,4.356,0,0,1,3.071,3.071,48.55,48.55,0,0,1,0,16.725,4.356,4.356,0,0,1-3.071,3.071C14303.913,9380.111,14293.128,9380.119,14293.02,9380.119Zm-3.175-17.024h0v9.729l8.426-4.862-8.426-4.866Z" transform="translate(-14384.813 -9278.314)" fill="#fff"/>
    </g>
  </g>
</svg>
